<?xml version="1.0" encoding="UTF-8" standalone="no"?>
<svg
   xmlns:dc="http://purl.org/dc/elements/1.1/"
   xmlns:cc="http://creativecommons.org/ns#"
   xmlns:rdf="http://www.w3.org/1999/02/22-rdf-syntax-ns#"
   xmlns:svg="http://www.w3.org/2000/svg"
   xmlns="http://www.w3.org/2000/svg"
   xmlns:sodipodi="http://sodipodi.sourceforge.net/DTD/sodipodi-0.dtd"
   xmlns:inkscape="http://www.inkscape.org/namespaces/inkscape"
   width="48"
   height="48"
   viewBox="0 0 12.7 12.7"
   version="1.1"
   id="svg8"
   inkscape:version="1.0.2 (e86c870879, 2021-01-15, custom)"
   sodipodi:docname="icon_mobile.svg">
  <defs
     id="defs2" />
  <sodipodi:namedview
     id="base"
     pagecolor="#ffffff"
     bordercolor="#666666"
     borderopacity="1.0"
     inkscape:pageopacity="0.0"
     inkscape:pageshadow="2"
     inkscape:zoom="7.9195959"
     inkscape:cx="24.540066"
     inkscape:cy="21.356783"
     inkscape:document-units="mm"
     inkscape:current-layer="text28"
     inkscape:document-rotation="0"
     showgrid="false"
     units="px"
     inkscape:window-width="3840"
     inkscape:window-height="2065"
     inkscape:window-x="0"
     inkscape:window-y="0"
     inkscape:window-maximized="1" />
  <metadata
     id="metadata5">
    <rdf:RDF>
      <cc:Work
         rdf:about="">
        <dc:format>image/svg+xml</dc:format>
        <dc:type
           rdf:resource="http://purl.org/dc/dcmitype/StillImage" />
        <dc:title></dc:title>
      </cc:Work>
    </rdf:RDF>
  </metadata>
  <g
     inkscape:label="Layer 1"
     inkscape:groupmode="layer"
     id="layer1">
    <g
       aria-label="ãµ"
       id="text28"
       style="font-style:normal;font-weight:normal;font-size:12.3545px;line-height:1.25;font-family:sans-serif;letter-spacing:0px;word-spacing:0px;opacity:0.995;fill:#000000;fill-opacity:1;stroke:none;stroke-width:0.308863">
      <path
         d="M 6.4203985,4.1484673 7.0113926,4.7600547 C 7.4487282,4.4217298 8.1224614,3.8491799 8.3943187,3.5889299 L 8.1815608,2.9122801 C 7.472368,2.3397302 6.1603611,1.6240428 5.2620502,1.2076428 L 4.7183356,1.9623677 C 5.6166466,2.3657551 6.7277154,3.0293925 7.2359703,3.48483 7.070492,3.6409799 6.7277154,3.9272549 6.4203985,4.1484673 Z m -2.281237,6.2199757 0.1300186,1.067025 c 0.5318947,0.117112 1.1819882,0.2082 1.9266407,0.2082 0.8628513,0 2.0330196,-0.36435 2.0330196,-1.9518767 0,-1.1841373 -0.7801122,-2.3292371 -1.8793612,-3.6044618 C 6.0658021,5.7490046 5.7703051,5.3976671 5.474808,5.0723547 L 4.777435,5.7490046 c 0.3309567,0.2992874 0.6855531,0.6766498 0.9455905,0.9759372 0.6619134,0.7937624 1.5129448,1.9648872 1.5129448,2.849737 0,0.8458142 -0.6500934,1.0800392 -1.193808,1.0800392 -0.7328326,0 -1.3120068,-0.104104 -1.9030008,-0.286275 z m 6.8200735,0.481462 0.874671,-0.533512 C 11.45567,9.1712914 10.569178,7.3105042 9.7536048,6.256492 L 8.9853127,6.7379543 c 0.8155721,1.0149748 1.6311443,2.875762 1.9739223,4.1119507 z M 4.5292175,8.3124665 3.985503,7.5317167 C 3.3117698,8.351504 1.9288438,9.5096163 0.95961328,10.082167 L 1.5151479,10.954005 C 2.6734962,10.19928 3.8436644,9.0932164 4.5292175,8.3124665 Z"
         style="font-style:normal;font-variant:normal;font-weight:normal;font-stretch:normal;font-family:'Noto Serif Malayalam';-inkscape-font-specification:'Noto Serif Malayalam';fill:#000000;stroke:#ffffff;stroke-width:0.81;stroke-miterlimit:4;stroke-dasharray:none;paint-order:stroke fill markers"
         id="path9" />
    </g>
  </g>
</svg>
